<mxfile host="app.diagrams.net" modified="2023-04-27T18:04:07.732Z" agent="Mozilla/5.0 (Windows NT 10.0; Win64; x64; rv:109.0) Gecko/20100101 Firefox/111.0" etag="nGP-fDZUavzT4wNbF9GF" version="21.1.8" type="device">
  <diagram name="Page-1" id="lkr-BBM3ICJieEtdHAA6">
    <mxGraphModel dx="1615" dy="1928" grid="1" gridSize="10" guides="1" tooltips="1" connect="1" arrows="1" fold="1" page="1" pageScale="1" pageWidth="850" pageHeight="1100" math="0" shadow="0">
      <root>
        <mxCell id="0" />
        <mxCell id="1" parent="0" />
        <mxCell id="l3nvB3DhA1se58afsrXY-289" value="&lt;div&gt;&lt;font style=&quot;font-size: 18px;&quot;&gt;Легенда&lt;br&gt;&lt;/font&gt;&lt;/div&gt;&lt;div&gt;&lt;font style=&quot;font-size: 18px;&quot;&gt;&lt;br&gt;&lt;/font&gt;&lt;/div&gt;&lt;div&gt;&lt;font style=&quot;font-size: 18px;&quot;&gt;&lt;br&gt;&lt;/font&gt;&lt;/div&gt;&lt;div&gt;&lt;font style=&quot;font-size: 18px;&quot;&gt;&lt;br&gt;&lt;/font&gt;&lt;/div&gt;&lt;div&gt;&lt;font style=&quot;font-size: 18px;&quot;&gt;&lt;br&gt;&lt;/font&gt;&lt;/div&gt;&lt;div&gt;&lt;font style=&quot;font-size: 18px;&quot;&gt;&lt;br&gt;&lt;/font&gt;&lt;/div&gt;&lt;div&gt;&lt;font style=&quot;font-size: 18px;&quot;&gt;&lt;br&gt;&lt;/font&gt;&lt;/div&gt;&lt;div&gt;&lt;font style=&quot;font-size: 18px;&quot;&gt;&lt;br&gt;&lt;/font&gt;&lt;/div&gt;&lt;div&gt;&lt;font style=&quot;font-size: 18px;&quot;&gt;&lt;br&gt;&lt;/font&gt;&lt;/div&gt;&lt;div&gt;&lt;font style=&quot;font-size: 18px;&quot;&gt;&lt;br&gt;&lt;/font&gt;&lt;/div&gt;&lt;div&gt;&lt;font style=&quot;font-size: 18px;&quot;&gt;&lt;br&gt;&lt;/font&gt;&lt;/div&gt;&lt;div&gt;&lt;font style=&quot;font-size: 18px;&quot;&gt;&lt;br&gt;&lt;/font&gt;&lt;/div&gt;&lt;div&gt;&lt;font style=&quot;font-size: 18px;&quot;&gt;&lt;br&gt;&lt;/font&gt;&lt;/div&gt;" style="rounded=1;whiteSpace=wrap;html=1;dashed=1;dashPattern=8 8;" vertex="1" parent="1">
          <mxGeometry x="860" y="-510" width="460" height="310" as="geometry" />
        </mxCell>
        <mxCell id="l3nvB3DhA1se58afsrXY-282" value="&lt;div&gt;&lt;font style=&quot;font-size: 36px;&quot;&gt;Интеграционное тестирование&lt;/font&gt;&lt;/div&gt;&lt;div&gt;&lt;font style=&quot;font-size: 36px;&quot;&gt;&lt;br&gt;&lt;/font&gt;&lt;/div&gt;&lt;div&gt;&lt;font style=&quot;font-size: 36px;&quot;&gt;&lt;br&gt;&lt;/font&gt;&lt;/div&gt;&lt;div&gt;&lt;font style=&quot;font-size: 36px;&quot;&gt;&lt;br&gt;&lt;/font&gt;&lt;/div&gt;&lt;div&gt;&lt;font style=&quot;font-size: 36px;&quot;&gt;&lt;br&gt;&lt;/font&gt;&lt;/div&gt;&lt;div&gt;&lt;font style=&quot;font-size: 36px;&quot;&gt;&lt;br&gt;&lt;/font&gt;&lt;/div&gt;&lt;div&gt;&lt;font style=&quot;font-size: 36px;&quot;&gt;&lt;br&gt;&lt;/font&gt;&lt;/div&gt;&lt;div&gt;&lt;font style=&quot;font-size: 36px;&quot;&gt;&lt;br&gt;&lt;/font&gt;&lt;/div&gt;&lt;div&gt;&lt;font style=&quot;font-size: 36px;&quot;&gt;&lt;br&gt;&lt;/font&gt;&lt;/div&gt;&lt;div&gt;&lt;font style=&quot;font-size: 36px;&quot;&gt;&lt;br&gt;&lt;/font&gt;&lt;/div&gt;&lt;div&gt;&lt;font style=&quot;font-size: 36px;&quot;&gt;&lt;br&gt;&lt;/font&gt;&lt;/div&gt;&lt;div&gt;&lt;font style=&quot;font-size: 36px;&quot;&gt;&lt;br&gt;&lt;/font&gt;&lt;/div&gt;&lt;div&gt;&lt;font style=&quot;font-size: 36px;&quot;&gt;&lt;br&gt;&lt;/font&gt;&lt;/div&gt;&lt;div&gt;&lt;font style=&quot;font-size: 36px;&quot;&gt;&lt;br&gt;&lt;/font&gt;&lt;/div&gt;&lt;div&gt;&lt;font style=&quot;font-size: 36px;&quot;&gt;&lt;br&gt;&lt;/font&gt;&lt;/div&gt;&lt;div&gt;&lt;font style=&quot;font-size: 36px;&quot;&gt;&lt;br&gt;&lt;/font&gt;&lt;/div&gt;&lt;div&gt;&lt;font style=&quot;font-size: 36px;&quot;&gt;&lt;br&gt;&lt;/font&gt;&lt;/div&gt;&lt;div&gt;&lt;font style=&quot;font-size: 36px;&quot;&gt;&lt;br&gt;&lt;/font&gt;&lt;/div&gt;&lt;div&gt;&lt;font style=&quot;font-size: 36px;&quot;&gt;&lt;br&gt;&lt;/font&gt;&lt;/div&gt;&lt;div&gt;&lt;font style=&quot;font-size: 36px;&quot;&gt;&lt;br&gt;&lt;/font&gt;&lt;/div&gt;&lt;div&gt;&lt;font style=&quot;font-size: 36px;&quot;&gt;&lt;br&gt;&lt;/font&gt;&lt;/div&gt;&lt;div&gt;&lt;font style=&quot;font-size: 36px;&quot;&gt;&lt;br&gt;&lt;/font&gt;&lt;/div&gt;&lt;div&gt;&lt;font style=&quot;font-size: 36px;&quot;&gt;&lt;br&gt;&lt;/font&gt;&lt;/div&gt;&lt;div&gt;&lt;font style=&quot;font-size: 36px;&quot;&gt;&lt;br&gt;&lt;/font&gt;&lt;/div&gt;&lt;div&gt;&lt;font style=&quot;font-size: 36px;&quot;&gt;&lt;br&gt;&lt;/font&gt;&lt;/div&gt;&lt;div&gt;&lt;font style=&quot;font-size: 36px;&quot;&gt;&lt;br&gt;&lt;/font&gt;&lt;/div&gt;&lt;div&gt;&lt;font style=&quot;font-size: 36px;&quot;&gt;&lt;br&gt;&lt;/font&gt;&lt;/div&gt;&lt;div&gt;&lt;font style=&quot;font-size: 36px;&quot;&gt;&lt;br&gt;&lt;/font&gt;&lt;/div&gt;&lt;div&gt;&lt;font style=&quot;font-size: 36px;&quot;&gt;&lt;br&gt;&lt;/font&gt;&lt;/div&gt;&lt;div&gt;&lt;font style=&quot;font-size: 36px;&quot;&gt;&lt;br&gt;&lt;/font&gt;&lt;/div&gt;&lt;div&gt;&lt;font style=&quot;font-size: 36px;&quot;&gt;&lt;br&gt;&lt;/font&gt;&lt;/div&gt;&lt;div&gt;&lt;font style=&quot;font-size: 36px;&quot;&gt;&lt;br&gt;&lt;/font&gt;&lt;/div&gt;&lt;div&gt;&lt;font style=&quot;font-size: 36px;&quot;&gt;&lt;br&gt;&lt;/font&gt;&lt;/div&gt;&lt;div&gt;&lt;font style=&quot;font-size: 36px;&quot;&gt;&lt;br&gt;&lt;/font&gt;&lt;/div&gt;&lt;div&gt;&lt;font style=&quot;font-size: 36px;&quot;&gt;&lt;br&gt;&lt;/font&gt;&lt;/div&gt;&lt;div&gt;&lt;font style=&quot;font-size: 36px;&quot;&gt;&lt;br&gt;&lt;/font&gt;&lt;/div&gt;&lt;div&gt;&lt;font style=&quot;font-size: 36px;&quot;&gt;&lt;br&gt;&lt;/font&gt;&lt;/div&gt;&lt;div&gt;&lt;font style=&quot;font-size: 36px;&quot;&gt;&lt;br&gt;&lt;/font&gt;&lt;/div&gt;&lt;div&gt;&lt;font style=&quot;font-size: 36px;&quot;&gt;&lt;br&gt;&lt;/font&gt;&lt;/div&gt;&lt;div&gt;&lt;font style=&quot;font-size: 36px;&quot;&gt;&lt;br&gt;&lt;/font&gt;&lt;/div&gt;&lt;div&gt;&lt;font style=&quot;font-size: 36px;&quot;&gt;&lt;br&gt;&lt;/font&gt;&lt;/div&gt;&lt;div&gt;&lt;font style=&quot;font-size: 36px;&quot;&gt;&lt;br&gt;&lt;/font&gt;&lt;/div&gt;&lt;div&gt;&lt;font style=&quot;font-size: 36px;&quot;&gt;&lt;br&gt;&lt;/font&gt;&lt;/div&gt;" style="rounded=1;whiteSpace=wrap;html=1;fillColor=#f5f5f5;fontColor=#333333;strokeColor=#666666;" vertex="1" parent="1">
          <mxGeometry x="210" y="-360" width="630" height="1910" as="geometry" />
        </mxCell>
        <mxCell id="l3nvB3DhA1se58afsrXY-219" value="&lt;div&gt;&lt;font style=&quot;font-size: 24px;&quot;&gt;Группа 2&lt;br&gt;&lt;/font&gt;&lt;/div&gt;&lt;div&gt;&lt;font size=&quot;3&quot;&gt;&lt;br&gt;&lt;/font&gt;&lt;/div&gt;&lt;div&gt;&lt;font size=&quot;3&quot;&gt;&lt;br&gt;&lt;/font&gt;&lt;/div&gt;&lt;div&gt;&lt;font size=&quot;3&quot;&gt;&lt;br&gt;&lt;/font&gt;&lt;/div&gt;&lt;div&gt;&lt;font size=&quot;3&quot;&gt;&lt;br&gt;&lt;/font&gt;&lt;/div&gt;&lt;div&gt;&lt;font size=&quot;3&quot;&gt;&lt;br&gt;&lt;/font&gt;&lt;/div&gt;&lt;div&gt;&lt;font size=&quot;3&quot;&gt;&lt;br&gt;&lt;/font&gt;&lt;/div&gt;&lt;div&gt;&lt;font size=&quot;3&quot;&gt;&lt;br&gt;&lt;/font&gt;&lt;/div&gt;&lt;div&gt;&lt;font size=&quot;3&quot;&gt;&lt;br&gt;&lt;/font&gt;&lt;/div&gt;&lt;div&gt;&lt;font size=&quot;3&quot;&gt;&lt;br&gt;&lt;/font&gt;&lt;/div&gt;&lt;div&gt;&lt;font size=&quot;3&quot;&gt;&lt;br&gt;&lt;/font&gt;&lt;/div&gt;&lt;div&gt;&lt;font size=&quot;3&quot;&gt;&lt;br&gt;&lt;/font&gt;&lt;/div&gt;&lt;div&gt;&lt;font size=&quot;3&quot;&gt;&lt;br&gt;&lt;/font&gt;&lt;/div&gt;&lt;div&gt;&lt;font size=&quot;3&quot;&gt;&lt;br&gt;&lt;/font&gt;&lt;/div&gt;&lt;div&gt;&lt;font size=&quot;3&quot;&gt;&lt;br&gt;&lt;/font&gt;&lt;/div&gt;&lt;div&gt;&lt;font size=&quot;3&quot;&gt;&lt;br&gt;&lt;/font&gt;&lt;/div&gt;" style="rounded=1;whiteSpace=wrap;html=1;fillColor=#dae8fc;strokeColor=#6c8ebf;" vertex="1" parent="1">
          <mxGeometry x="250" y="10" width="550" height="340" as="geometry" />
        </mxCell>
        <mxCell id="l3nvB3DhA1se58afsrXY-285" style="edgeStyle=orthogonalEdgeStyle;rounded=0;orthogonalLoop=1;jettySize=auto;html=1;exitX=0.5;exitY=1;exitDx=0;exitDy=0;entryX=0.5;entryY=0;entryDx=0;entryDy=0;strokeWidth=2;" edge="1" parent="1" source="l3nvB3DhA1se58afsrXY-218" target="l3nvB3DhA1se58afsrXY-282">
          <mxGeometry relative="1" as="geometry" />
        </mxCell>
        <mxCell id="l3nvB3DhA1se58afsrXY-218" value="&lt;div&gt;&lt;font style=&quot;font-size: 36px;&quot;&gt;Модульное тестирование&lt;/font&gt;&lt;/div&gt;" style="rounded=1;whiteSpace=wrap;html=1;fillColor=#f5f5f5;fontColor=#333333;strokeColor=#666666;" vertex="1" parent="1">
          <mxGeometry x="210" y="-510" width="630" height="100" as="geometry" />
        </mxCell>
        <mxCell id="l3nvB3DhA1se58afsrXY-226" style="edgeStyle=orthogonalEdgeStyle;rounded=0;orthogonalLoop=1;jettySize=auto;html=1;exitX=0.5;exitY=1;exitDx=0;exitDy=0;entryX=0.5;entryY=0;entryDx=0;entryDy=0;strokeColor=#4912FF;strokeWidth=2;" edge="1" parent="1" source="l3nvB3DhA1se58afsrXY-220" target="l3nvB3DhA1se58afsrXY-221">
          <mxGeometry relative="1" as="geometry" />
        </mxCell>
        <mxCell id="l3nvB3DhA1se58afsrXY-220" value="&lt;font style=&quot;font-size: 14px;&quot;&gt;autoreport.py&lt;/font&gt;" style="rounded=0;whiteSpace=wrap;html=1;" vertex="1" parent="1">
          <mxGeometry x="465" y="70" width="120" height="60" as="geometry" />
        </mxCell>
        <mxCell id="l3nvB3DhA1se58afsrXY-227" style="edgeStyle=orthogonalEdgeStyle;rounded=0;orthogonalLoop=1;jettySize=auto;html=1;exitX=1;exitY=0.25;exitDx=0;exitDy=0;entryX=0.25;entryY=0;entryDx=0;entryDy=0;dashed=1;" edge="1" parent="1" source="l3nvB3DhA1se58afsrXY-221" target="l3nvB3DhA1se58afsrXY-225">
          <mxGeometry relative="1" as="geometry" />
        </mxCell>
        <mxCell id="l3nvB3DhA1se58afsrXY-228" style="edgeStyle=orthogonalEdgeStyle;rounded=0;orthogonalLoop=1;jettySize=auto;html=1;exitX=0.75;exitY=1;exitDx=0;exitDy=0;entryX=0.5;entryY=0;entryDx=0;entryDy=0;strokeColor=#31FF08;strokeWidth=2;" edge="1" parent="1" source="l3nvB3DhA1se58afsrXY-221" target="l3nvB3DhA1se58afsrXY-224">
          <mxGeometry relative="1" as="geometry" />
        </mxCell>
        <mxCell id="l3nvB3DhA1se58afsrXY-229" style="edgeStyle=orthogonalEdgeStyle;rounded=0;orthogonalLoop=1;jettySize=auto;html=1;exitX=0.25;exitY=1;exitDx=0;exitDy=0;entryX=0.5;entryY=0;entryDx=0;entryDy=0;dashed=1;" edge="1" parent="1" source="l3nvB3DhA1se58afsrXY-221" target="l3nvB3DhA1se58afsrXY-223">
          <mxGeometry relative="1" as="geometry" />
        </mxCell>
        <mxCell id="l3nvB3DhA1se58afsrXY-230" style="edgeStyle=orthogonalEdgeStyle;rounded=0;orthogonalLoop=1;jettySize=auto;html=1;exitX=0;exitY=0.25;exitDx=0;exitDy=0;entryX=0.5;entryY=0;entryDx=0;entryDy=0;dashed=1;" edge="1" parent="1" source="l3nvB3DhA1se58afsrXY-221" target="l3nvB3DhA1se58afsrXY-222">
          <mxGeometry relative="1" as="geometry" />
        </mxCell>
        <mxCell id="l3nvB3DhA1se58afsrXY-221" value="&lt;font style=&quot;font-size: 14px;&quot;&gt;funcs.py&lt;/font&gt;" style="rounded=0;whiteSpace=wrap;html=1;" vertex="1" parent="1">
          <mxGeometry x="465" y="160" width="120" height="60" as="geometry" />
        </mxCell>
        <mxCell id="l3nvB3DhA1se58afsrXY-222" value="&lt;font style=&quot;font-size: 14px;&quot;&gt;report_generator.py&lt;/font&gt;" style="rounded=0;whiteSpace=wrap;html=1;fillColor=#d5e8d4;strokeColor=#82b366;" vertex="1" parent="1">
          <mxGeometry x="260" y="200" width="140" height="60" as="geometry" />
        </mxCell>
        <mxCell id="l3nvB3DhA1se58afsrXY-223" value="&lt;font style=&quot;font-size: 14px;&quot;&gt;cirriculum_getter.py&lt;/font&gt;" style="rounded=0;whiteSpace=wrap;html=1;fillColor=#d5e8d4;strokeColor=#82b366;" vertex="1" parent="1">
          <mxGeometry x="370" y="270" width="140" height="60" as="geometry" />
        </mxCell>
        <mxCell id="l3nvB3DhA1se58afsrXY-224" value="&lt;font style=&quot;font-size: 14px;&quot;&gt;cirriculum_importer.py&lt;/font&gt;" style="rounded=0;whiteSpace=wrap;html=1;" vertex="1" parent="1">
          <mxGeometry x="530" y="270" width="160" height="60" as="geometry" />
        </mxCell>
        <mxCell id="l3nvB3DhA1se58afsrXY-225" value="&lt;font style=&quot;font-size: 14px;&quot;&gt;report_state.py&lt;/font&gt;" style="rounded=0;whiteSpace=wrap;html=1;fillColor=#d5e8d4;strokeColor=#82b366;" vertex="1" parent="1">
          <mxGeometry x="660" y="200" width="120" height="60" as="geometry" />
        </mxCell>
        <mxCell id="l3nvB3DhA1se58afsrXY-284" style="edgeStyle=orthogonalEdgeStyle;rounded=0;orthogonalLoop=1;jettySize=auto;html=1;exitX=0.5;exitY=1;exitDx=0;exitDy=0;entryX=0.5;entryY=0;entryDx=0;entryDy=0;strokeWidth=2;" edge="1" parent="1" source="l3nvB3DhA1se58afsrXY-231" target="l3nvB3DhA1se58afsrXY-219">
          <mxGeometry relative="1" as="geometry" />
        </mxCell>
        <mxCell id="l3nvB3DhA1se58afsrXY-231" value="&lt;div&gt;&lt;font style=&quot;font-size: 24px;&quot;&gt;Группа 1&lt;/font&gt;&lt;/div&gt;&lt;br&gt;&lt;div&gt;&lt;br&gt;&lt;/div&gt;&lt;div&gt;&lt;br&gt;&lt;/div&gt;&lt;div&gt;&lt;br&gt;&lt;/div&gt;&lt;div&gt;&lt;br&gt;&lt;/div&gt;&lt;div&gt;&lt;br&gt;&lt;/div&gt;&lt;div&gt;&lt;br&gt;&lt;/div&gt;&lt;div&gt;&lt;br&gt;&lt;/div&gt;&lt;div&gt;&lt;br&gt;&lt;/div&gt;&lt;div&gt;&lt;br&gt;&lt;/div&gt;&lt;div&gt;&lt;br&gt;&lt;/div&gt;&lt;div&gt;&lt;br&gt;&lt;/div&gt;" style="rounded=1;whiteSpace=wrap;html=1;fillColor=#dae8fc;strokeColor=#6c8ebf;" vertex="1" parent="1">
          <mxGeometry x="440" y="-270" width="170" height="230" as="geometry" />
        </mxCell>
        <mxCell id="l3nvB3DhA1se58afsrXY-235" style="edgeStyle=orthogonalEdgeStyle;rounded=0;orthogonalLoop=1;jettySize=auto;html=1;exitX=0.5;exitY=1;exitDx=0;exitDy=0;entryX=0.5;entryY=0;entryDx=0;entryDy=0;strokeColor=#4912FF;strokeWidth=2;" edge="1" parent="1" source="l3nvB3DhA1se58afsrXY-238" target="l3nvB3DhA1se58afsrXY-241">
          <mxGeometry relative="1" as="geometry" />
        </mxCell>
        <mxCell id="l3nvB3DhA1se58afsrXY-238" value="&lt;font style=&quot;font-size: 14px;&quot;&gt;funcs.py&lt;/font&gt;" style="rounded=0;whiteSpace=wrap;html=1;" vertex="1" parent="1">
          <mxGeometry x="465" y="-210" width="120" height="60" as="geometry" />
        </mxCell>
        <mxCell id="l3nvB3DhA1se58afsrXY-241" value="&lt;font style=&quot;font-size: 14px;&quot;&gt;cirriculum_importer.py&lt;/font&gt;" style="rounded=0;whiteSpace=wrap;html=1;" vertex="1" parent="1">
          <mxGeometry x="450" y="-110" width="150" height="60" as="geometry" />
        </mxCell>
        <mxCell id="l3nvB3DhA1se58afsrXY-243" value="&lt;div&gt;&lt;font style=&quot;font-size: 24px;&quot;&gt;Группа 3&lt;br&gt;&lt;/font&gt;&lt;/div&gt;&lt;div&gt;&lt;font size=&quot;3&quot;&gt;&lt;br&gt;&lt;/font&gt;&lt;/div&gt;&lt;div&gt;&lt;font size=&quot;3&quot;&gt;&lt;br&gt;&lt;/font&gt;&lt;/div&gt;&lt;div&gt;&lt;font size=&quot;3&quot;&gt;&lt;br&gt;&lt;/font&gt;&lt;/div&gt;&lt;div&gt;&lt;font size=&quot;3&quot;&gt;&lt;br&gt;&lt;/font&gt;&lt;/div&gt;&lt;div&gt;&lt;font size=&quot;3&quot;&gt;&lt;br&gt;&lt;/font&gt;&lt;/div&gt;&lt;div&gt;&lt;font size=&quot;3&quot;&gt;&lt;br&gt;&lt;/font&gt;&lt;/div&gt;&lt;div&gt;&lt;font size=&quot;3&quot;&gt;&lt;br&gt;&lt;/font&gt;&lt;/div&gt;&lt;div&gt;&lt;font size=&quot;3&quot;&gt;&lt;br&gt;&lt;/font&gt;&lt;/div&gt;&lt;div&gt;&lt;font size=&quot;3&quot;&gt;&lt;br&gt;&lt;/font&gt;&lt;/div&gt;&lt;div&gt;&lt;font size=&quot;3&quot;&gt;&lt;br&gt;&lt;/font&gt;&lt;/div&gt;&lt;div&gt;&lt;font size=&quot;3&quot;&gt;&lt;br&gt;&lt;/font&gt;&lt;/div&gt;&lt;div&gt;&lt;font size=&quot;3&quot;&gt;&lt;br&gt;&lt;/font&gt;&lt;/div&gt;&lt;div&gt;&lt;font size=&quot;3&quot;&gt;&lt;br&gt;&lt;/font&gt;&lt;/div&gt;&lt;div&gt;&lt;font size=&quot;3&quot;&gt;&lt;br&gt;&lt;/font&gt;&lt;/div&gt;&lt;div&gt;&lt;font size=&quot;3&quot;&gt;&lt;br&gt;&lt;/font&gt;&lt;/div&gt;" style="rounded=1;whiteSpace=wrap;html=1;fillColor=#dae8fc;strokeColor=#6c8ebf;" vertex="1" parent="1">
          <mxGeometry x="250" y="400" width="550" height="340" as="geometry" />
        </mxCell>
        <mxCell id="l3nvB3DhA1se58afsrXY-244" style="edgeStyle=orthogonalEdgeStyle;rounded=0;orthogonalLoop=1;jettySize=auto;html=1;exitX=0.5;exitY=1;exitDx=0;exitDy=0;entryX=0.5;entryY=0;entryDx=0;entryDy=0;strokeColor=#31FF08;strokeWidth=2;" edge="1" parent="1" source="l3nvB3DhA1se58afsrXY-245" target="l3nvB3DhA1se58afsrXY-250">
          <mxGeometry relative="1" as="geometry" />
        </mxCell>
        <mxCell id="l3nvB3DhA1se58afsrXY-245" value="&lt;font style=&quot;font-size: 14px;&quot;&gt;autoreport.py&lt;/font&gt;" style="rounded=0;whiteSpace=wrap;html=1;" vertex="1" parent="1">
          <mxGeometry x="465" y="460" width="120" height="60" as="geometry" />
        </mxCell>
        <mxCell id="l3nvB3DhA1se58afsrXY-246" style="edgeStyle=orthogonalEdgeStyle;rounded=0;orthogonalLoop=1;jettySize=auto;html=1;exitX=1;exitY=0.25;exitDx=0;exitDy=0;entryX=0.25;entryY=0;entryDx=0;entryDy=0;strokeColor=#4912FF;strokeWidth=2;" edge="1" parent="1" source="l3nvB3DhA1se58afsrXY-250" target="l3nvB3DhA1se58afsrXY-254">
          <mxGeometry relative="1" as="geometry" />
        </mxCell>
        <mxCell id="l3nvB3DhA1se58afsrXY-247" style="edgeStyle=orthogonalEdgeStyle;rounded=0;orthogonalLoop=1;jettySize=auto;html=1;exitX=0.75;exitY=1;exitDx=0;exitDy=0;entryX=0.5;entryY=0;entryDx=0;entryDy=0;strokeColor=#31FF08;strokeWidth=2;" edge="1" parent="1" source="l3nvB3DhA1se58afsrXY-250" target="l3nvB3DhA1se58afsrXY-253">
          <mxGeometry relative="1" as="geometry" />
        </mxCell>
        <mxCell id="l3nvB3DhA1se58afsrXY-248" style="edgeStyle=orthogonalEdgeStyle;rounded=0;orthogonalLoop=1;jettySize=auto;html=1;exitX=0.25;exitY=1;exitDx=0;exitDy=0;entryX=0.5;entryY=0;entryDx=0;entryDy=0;dashed=1;" edge="1" parent="1" source="l3nvB3DhA1se58afsrXY-250" target="l3nvB3DhA1se58afsrXY-252">
          <mxGeometry relative="1" as="geometry" />
        </mxCell>
        <mxCell id="l3nvB3DhA1se58afsrXY-249" style="edgeStyle=orthogonalEdgeStyle;rounded=0;orthogonalLoop=1;jettySize=auto;html=1;exitX=0;exitY=0.25;exitDx=0;exitDy=0;entryX=0.5;entryY=0;entryDx=0;entryDy=0;dashed=1;" edge="1" parent="1" source="l3nvB3DhA1se58afsrXY-250" target="l3nvB3DhA1se58afsrXY-251">
          <mxGeometry relative="1" as="geometry" />
        </mxCell>
        <mxCell id="l3nvB3DhA1se58afsrXY-250" value="&lt;font style=&quot;font-size: 14px;&quot;&gt;funcs.py&lt;/font&gt;" style="rounded=0;whiteSpace=wrap;html=1;" vertex="1" parent="1">
          <mxGeometry x="465" y="550" width="120" height="60" as="geometry" />
        </mxCell>
        <mxCell id="l3nvB3DhA1se58afsrXY-251" value="&lt;font style=&quot;font-size: 14px;&quot;&gt;report_generator.py&lt;/font&gt;" style="rounded=0;whiteSpace=wrap;html=1;fillColor=#d5e8d4;strokeColor=#82b366;" vertex="1" parent="1">
          <mxGeometry x="260" y="590" width="140" height="60" as="geometry" />
        </mxCell>
        <mxCell id="l3nvB3DhA1se58afsrXY-252" value="&lt;font style=&quot;font-size: 14px;&quot;&gt;cirriculum_getter.py&lt;/font&gt;" style="rounded=0;whiteSpace=wrap;html=1;fillColor=#d5e8d4;strokeColor=#82b366;" vertex="1" parent="1">
          <mxGeometry x="370" y="660" width="140" height="60" as="geometry" />
        </mxCell>
        <mxCell id="l3nvB3DhA1se58afsrXY-253" value="&lt;font style=&quot;font-size: 14px;&quot;&gt;cirriculum_importer.py&lt;/font&gt;" style="rounded=0;whiteSpace=wrap;html=1;" vertex="1" parent="1">
          <mxGeometry x="530" y="660" width="160" height="60" as="geometry" />
        </mxCell>
        <mxCell id="l3nvB3DhA1se58afsrXY-254" value="&lt;font style=&quot;font-size: 14px;&quot;&gt;report_state.py&lt;/font&gt;" style="rounded=0;whiteSpace=wrap;html=1;" vertex="1" parent="1">
          <mxGeometry x="660" y="590" width="120" height="60" as="geometry" />
        </mxCell>
        <mxCell id="l3nvB3DhA1se58afsrXY-255" value="&lt;div&gt;&lt;font style=&quot;font-size: 24px;&quot;&gt;Группа 4&lt;br&gt;&lt;/font&gt;&lt;/div&gt;&lt;div&gt;&lt;font size=&quot;3&quot;&gt;&lt;br&gt;&lt;/font&gt;&lt;/div&gt;&lt;div&gt;&lt;font size=&quot;3&quot;&gt;&lt;br&gt;&lt;/font&gt;&lt;/div&gt;&lt;div&gt;&lt;font size=&quot;3&quot;&gt;&lt;br&gt;&lt;/font&gt;&lt;/div&gt;&lt;div&gt;&lt;font size=&quot;3&quot;&gt;&lt;br&gt;&lt;/font&gt;&lt;/div&gt;&lt;div&gt;&lt;font size=&quot;3&quot;&gt;&lt;br&gt;&lt;/font&gt;&lt;/div&gt;&lt;div&gt;&lt;font size=&quot;3&quot;&gt;&lt;br&gt;&lt;/font&gt;&lt;/div&gt;&lt;div&gt;&lt;font size=&quot;3&quot;&gt;&lt;br&gt;&lt;/font&gt;&lt;/div&gt;&lt;div&gt;&lt;font size=&quot;3&quot;&gt;&lt;br&gt;&lt;/font&gt;&lt;/div&gt;&lt;div&gt;&lt;font size=&quot;3&quot;&gt;&lt;br&gt;&lt;/font&gt;&lt;/div&gt;&lt;div&gt;&lt;font size=&quot;3&quot;&gt;&lt;br&gt;&lt;/font&gt;&lt;/div&gt;&lt;div&gt;&lt;font size=&quot;3&quot;&gt;&lt;br&gt;&lt;/font&gt;&lt;/div&gt;&lt;div&gt;&lt;font size=&quot;3&quot;&gt;&lt;br&gt;&lt;/font&gt;&lt;/div&gt;&lt;div&gt;&lt;font size=&quot;3&quot;&gt;&lt;br&gt;&lt;/font&gt;&lt;/div&gt;&lt;div&gt;&lt;font size=&quot;3&quot;&gt;&lt;br&gt;&lt;/font&gt;&lt;/div&gt;&lt;div&gt;&lt;font size=&quot;3&quot;&gt;&lt;br&gt;&lt;/font&gt;&lt;/div&gt;" style="rounded=1;whiteSpace=wrap;html=1;fillColor=#dae8fc;strokeColor=#6c8ebf;" vertex="1" parent="1">
          <mxGeometry x="250" y="790" width="550" height="340" as="geometry" />
        </mxCell>
        <mxCell id="l3nvB3DhA1se58afsrXY-256" style="edgeStyle=orthogonalEdgeStyle;rounded=0;orthogonalLoop=1;jettySize=auto;html=1;exitX=0.5;exitY=1;exitDx=0;exitDy=0;entryX=0.5;entryY=0;entryDx=0;entryDy=0;strokeColor=#31FF08;strokeWidth=2;" edge="1" parent="1" source="l3nvB3DhA1se58afsrXY-257" target="l3nvB3DhA1se58afsrXY-262">
          <mxGeometry relative="1" as="geometry" />
        </mxCell>
        <mxCell id="l3nvB3DhA1se58afsrXY-257" value="&lt;font style=&quot;font-size: 14px;&quot;&gt;autoreport.py&lt;/font&gt;" style="rounded=0;whiteSpace=wrap;html=1;" vertex="1" parent="1">
          <mxGeometry x="465" y="850" width="120" height="60" as="geometry" />
        </mxCell>
        <mxCell id="l3nvB3DhA1se58afsrXY-259" style="edgeStyle=orthogonalEdgeStyle;rounded=0;orthogonalLoop=1;jettySize=auto;html=1;exitX=0.75;exitY=1;exitDx=0;exitDy=0;entryX=0.5;entryY=0;entryDx=0;entryDy=0;strokeColor=#31FF08;strokeWidth=2;" edge="1" parent="1" source="l3nvB3DhA1se58afsrXY-262" target="l3nvB3DhA1se58afsrXY-265">
          <mxGeometry relative="1" as="geometry" />
        </mxCell>
        <mxCell id="l3nvB3DhA1se58afsrXY-260" style="edgeStyle=orthogonalEdgeStyle;rounded=0;orthogonalLoop=1;jettySize=auto;html=1;exitX=0.25;exitY=1;exitDx=0;exitDy=0;entryX=0.5;entryY=0;entryDx=0;entryDy=0;dashed=1;" edge="1" parent="1" source="l3nvB3DhA1se58afsrXY-262" target="l3nvB3DhA1se58afsrXY-264">
          <mxGeometry relative="1" as="geometry" />
        </mxCell>
        <mxCell id="l3nvB3DhA1se58afsrXY-262" value="&lt;font style=&quot;font-size: 14px;&quot;&gt;funcs.py&lt;/font&gt;" style="rounded=0;whiteSpace=wrap;html=1;" vertex="1" parent="1">
          <mxGeometry x="465" y="940" width="120" height="60" as="geometry" />
        </mxCell>
        <mxCell id="l3nvB3DhA1se58afsrXY-263" value="&lt;font style=&quot;font-size: 14px;&quot;&gt;report_generator.py&lt;/font&gt;" style="rounded=0;whiteSpace=wrap;html=1;" vertex="1" parent="1">
          <mxGeometry x="260" y="980" width="140" height="60" as="geometry" />
        </mxCell>
        <mxCell id="l3nvB3DhA1se58afsrXY-264" value="&lt;font style=&quot;font-size: 14px;&quot;&gt;cirriculum_getter.py&lt;/font&gt;" style="rounded=0;whiteSpace=wrap;html=1;fillColor=#d5e8d4;strokeColor=#82b366;" vertex="1" parent="1">
          <mxGeometry x="370" y="1050" width="140" height="60" as="geometry" />
        </mxCell>
        <mxCell id="l3nvB3DhA1se58afsrXY-265" value="&lt;font style=&quot;font-size: 14px;&quot;&gt;cirriculum_importer.py&lt;/font&gt;" style="rounded=0;whiteSpace=wrap;html=1;" vertex="1" parent="1">
          <mxGeometry x="530" y="1050" width="160" height="60" as="geometry" />
        </mxCell>
        <mxCell id="l3nvB3DhA1se58afsrXY-266" value="&lt;font style=&quot;font-size: 14px;&quot;&gt;report_state.py&lt;/font&gt;" style="rounded=0;whiteSpace=wrap;html=1;" vertex="1" parent="1">
          <mxGeometry x="660" y="980" width="120" height="60" as="geometry" />
        </mxCell>
        <mxCell id="l3nvB3DhA1se58afsrXY-267" style="edgeStyle=orthogonalEdgeStyle;rounded=0;orthogonalLoop=1;jettySize=auto;html=1;exitX=0;exitY=0.25;exitDx=0;exitDy=0;entryX=0.75;entryY=0;entryDx=0;entryDy=0;strokeColor=#4912FF;strokeWidth=2;" edge="1" parent="1" source="l3nvB3DhA1se58afsrXY-262" target="l3nvB3DhA1se58afsrXY-263">
          <mxGeometry relative="1" as="geometry">
            <mxPoint x="595" y="995" as="sourcePoint" />
            <mxPoint x="700" y="1030" as="targetPoint" />
          </mxGeometry>
        </mxCell>
        <mxCell id="l3nvB3DhA1se58afsrXY-268" style="edgeStyle=orthogonalEdgeStyle;rounded=0;orthogonalLoop=1;jettySize=auto;html=1;exitX=1;exitY=0.25;exitDx=0;exitDy=0;entryX=0.25;entryY=0;entryDx=0;entryDy=0;strokeColor=#31FF08;strokeWidth=2;" edge="1" parent="1" source="l3nvB3DhA1se58afsrXY-262" target="l3nvB3DhA1se58afsrXY-266">
          <mxGeometry relative="1" as="geometry">
            <mxPoint x="565" y="1010" as="sourcePoint" />
            <mxPoint x="600" y="1060" as="targetPoint" />
          </mxGeometry>
        </mxCell>
        <mxCell id="l3nvB3DhA1se58afsrXY-269" value="&lt;div&gt;&lt;font style=&quot;font-size: 24px;&quot;&gt;Группа 5&lt;/font&gt;&lt;/div&gt;&lt;div&gt;&lt;font size=&quot;3&quot;&gt;&lt;br&gt;&lt;/font&gt;&lt;/div&gt;&lt;div&gt;&lt;font size=&quot;3&quot;&gt;&lt;br&gt;&lt;/font&gt;&lt;/div&gt;&lt;div&gt;&lt;font size=&quot;3&quot;&gt;&lt;br&gt;&lt;/font&gt;&lt;/div&gt;&lt;div&gt;&lt;font size=&quot;3&quot;&gt;&lt;br&gt;&lt;/font&gt;&lt;/div&gt;&lt;div&gt;&lt;font size=&quot;3&quot;&gt;&lt;br&gt;&lt;/font&gt;&lt;/div&gt;&lt;div&gt;&lt;font size=&quot;3&quot;&gt;&lt;br&gt;&lt;/font&gt;&lt;/div&gt;&lt;div&gt;&lt;font size=&quot;3&quot;&gt;&lt;br&gt;&lt;/font&gt;&lt;/div&gt;&lt;div&gt;&lt;font size=&quot;3&quot;&gt;&lt;br&gt;&lt;/font&gt;&lt;/div&gt;&lt;div&gt;&lt;font size=&quot;3&quot;&gt;&lt;br&gt;&lt;/font&gt;&lt;/div&gt;&lt;div&gt;&lt;font size=&quot;3&quot;&gt;&lt;br&gt;&lt;/font&gt;&lt;/div&gt;&lt;div&gt;&lt;font size=&quot;3&quot;&gt;&lt;br&gt;&lt;/font&gt;&lt;/div&gt;&lt;div&gt;&lt;font size=&quot;3&quot;&gt;&lt;br&gt;&lt;/font&gt;&lt;/div&gt;&lt;div&gt;&lt;font size=&quot;3&quot;&gt;&lt;br&gt;&lt;/font&gt;&lt;/div&gt;&lt;div&gt;&lt;font size=&quot;3&quot;&gt;&lt;br&gt;&lt;/font&gt;&lt;/div&gt;&lt;div&gt;&lt;font size=&quot;3&quot;&gt;&lt;br&gt;&lt;/font&gt;&lt;/div&gt;" style="rounded=1;whiteSpace=wrap;html=1;fillColor=#dae8fc;strokeColor=#6c8ebf;" vertex="1" parent="1">
          <mxGeometry x="250" y="1180" width="550" height="340" as="geometry" />
        </mxCell>
        <mxCell id="l3nvB3DhA1se58afsrXY-270" style="edgeStyle=orthogonalEdgeStyle;rounded=0;orthogonalLoop=1;jettySize=auto;html=1;exitX=0.5;exitY=1;exitDx=0;exitDy=0;entryX=0.5;entryY=0;entryDx=0;entryDy=0;strokeColor=#31FF08;strokeWidth=2;" edge="1" parent="1" source="l3nvB3DhA1se58afsrXY-271" target="l3nvB3DhA1se58afsrXY-274">
          <mxGeometry relative="1" as="geometry" />
        </mxCell>
        <mxCell id="l3nvB3DhA1se58afsrXY-271" value="&lt;font style=&quot;font-size: 14px;&quot;&gt;autoreport.py&lt;/font&gt;" style="rounded=0;whiteSpace=wrap;html=1;" vertex="1" parent="1">
          <mxGeometry x="465" y="1240" width="120" height="60" as="geometry" />
        </mxCell>
        <mxCell id="l3nvB3DhA1se58afsrXY-272" style="edgeStyle=orthogonalEdgeStyle;rounded=0;orthogonalLoop=1;jettySize=auto;html=1;exitX=0.75;exitY=1;exitDx=0;exitDy=0;entryX=0.5;entryY=0;entryDx=0;entryDy=0;strokeColor=#31FF08;strokeWidth=2;" edge="1" parent="1" source="l3nvB3DhA1se58afsrXY-274" target="l3nvB3DhA1se58afsrXY-277">
          <mxGeometry relative="1" as="geometry" />
        </mxCell>
        <mxCell id="l3nvB3DhA1se58afsrXY-274" value="&lt;font style=&quot;font-size: 14px;&quot;&gt;funcs.py&lt;/font&gt;" style="rounded=0;whiteSpace=wrap;html=1;" vertex="1" parent="1">
          <mxGeometry x="465" y="1330" width="120" height="60" as="geometry" />
        </mxCell>
        <mxCell id="l3nvB3DhA1se58afsrXY-275" value="&lt;font style=&quot;font-size: 14px;&quot;&gt;report_generator.py&lt;/font&gt;" style="rounded=0;whiteSpace=wrap;html=1;" vertex="1" parent="1">
          <mxGeometry x="260" y="1370" width="140" height="60" as="geometry" />
        </mxCell>
        <mxCell id="l3nvB3DhA1se58afsrXY-276" value="&lt;font style=&quot;font-size: 14px;&quot;&gt;cirriculum_getter.py&lt;/font&gt;" style="rounded=0;whiteSpace=wrap;html=1;" vertex="1" parent="1">
          <mxGeometry x="370" y="1440" width="140" height="60" as="geometry" />
        </mxCell>
        <mxCell id="l3nvB3DhA1se58afsrXY-277" value="&lt;font style=&quot;font-size: 14px;&quot;&gt;cirriculum_importer.py&lt;/font&gt;" style="rounded=0;whiteSpace=wrap;html=1;" vertex="1" parent="1">
          <mxGeometry x="530" y="1440" width="160" height="60" as="geometry" />
        </mxCell>
        <mxCell id="l3nvB3DhA1se58afsrXY-278" value="&lt;font style=&quot;font-size: 14px;&quot;&gt;report_state.py&lt;/font&gt;" style="rounded=0;whiteSpace=wrap;html=1;" vertex="1" parent="1">
          <mxGeometry x="660" y="1370" width="120" height="60" as="geometry" />
        </mxCell>
        <mxCell id="l3nvB3DhA1se58afsrXY-279" style="edgeStyle=orthogonalEdgeStyle;rounded=0;orthogonalLoop=1;jettySize=auto;html=1;exitX=0.25;exitY=1;exitDx=0;exitDy=0;entryX=0.5;entryY=0;entryDx=0;entryDy=0;strokeColor=#4912FF;strokeWidth=2;" edge="1" parent="1" source="l3nvB3DhA1se58afsrXY-274" target="l3nvB3DhA1se58afsrXY-276">
          <mxGeometry relative="1" as="geometry">
            <mxPoint x="595" y="1385" as="sourcePoint" />
            <mxPoint x="700" y="1420" as="targetPoint" />
          </mxGeometry>
        </mxCell>
        <mxCell id="l3nvB3DhA1se58afsrXY-280" style="edgeStyle=orthogonalEdgeStyle;rounded=0;orthogonalLoop=1;jettySize=auto;html=1;exitX=1;exitY=0.25;exitDx=0;exitDy=0;entryX=0.25;entryY=0;entryDx=0;entryDy=0;strokeColor=#31FF08;strokeWidth=2;" edge="1" parent="1" source="l3nvB3DhA1se58afsrXY-274" target="l3nvB3DhA1se58afsrXY-278">
          <mxGeometry relative="1" as="geometry">
            <mxPoint x="565" y="1400" as="sourcePoint" />
            <mxPoint x="600" y="1450" as="targetPoint" />
          </mxGeometry>
        </mxCell>
        <mxCell id="l3nvB3DhA1se58afsrXY-281" style="edgeStyle=orthogonalEdgeStyle;rounded=0;orthogonalLoop=1;jettySize=auto;html=1;exitX=0;exitY=0.25;exitDx=0;exitDy=0;entryX=0.75;entryY=0;entryDx=0;entryDy=0;strokeColor=#31FF08;strokeWidth=2;" edge="1" parent="1" source="l3nvB3DhA1se58afsrXY-274" target="l3nvB3DhA1se58afsrXY-275">
          <mxGeometry relative="1" as="geometry">
            <mxPoint x="565" y="1400" as="sourcePoint" />
            <mxPoint x="600" y="1450" as="targetPoint" />
          </mxGeometry>
        </mxCell>
        <mxCell id="l3nvB3DhA1se58afsrXY-286" style="edgeStyle=orthogonalEdgeStyle;rounded=0;orthogonalLoop=1;jettySize=auto;html=1;exitX=0.5;exitY=1;exitDx=0;exitDy=0;entryX=0.5;entryY=0;entryDx=0;entryDy=0;strokeWidth=2;" edge="1" parent="1" source="l3nvB3DhA1se58afsrXY-219" target="l3nvB3DhA1se58afsrXY-243">
          <mxGeometry relative="1" as="geometry">
            <mxPoint x="535" y="-30" as="sourcePoint" />
            <mxPoint x="535" y="20" as="targetPoint" />
          </mxGeometry>
        </mxCell>
        <mxCell id="l3nvB3DhA1se58afsrXY-287" style="edgeStyle=orthogonalEdgeStyle;rounded=0;orthogonalLoop=1;jettySize=auto;html=1;exitX=0.5;exitY=1;exitDx=0;exitDy=0;entryX=0.5;entryY=0;entryDx=0;entryDy=0;strokeWidth=2;" edge="1" parent="1" source="l3nvB3DhA1se58afsrXY-243" target="l3nvB3DhA1se58afsrXY-255">
          <mxGeometry relative="1" as="geometry">
            <mxPoint x="535" y="360" as="sourcePoint" />
            <mxPoint x="535" y="410" as="targetPoint" />
          </mxGeometry>
        </mxCell>
        <mxCell id="l3nvB3DhA1se58afsrXY-288" style="edgeStyle=orthogonalEdgeStyle;rounded=0;orthogonalLoop=1;jettySize=auto;html=1;exitX=0.5;exitY=1;exitDx=0;exitDy=0;entryX=0.5;entryY=0;entryDx=0;entryDy=0;strokeWidth=2;" edge="1" parent="1" source="l3nvB3DhA1se58afsrXY-255" target="l3nvB3DhA1se58afsrXY-269">
          <mxGeometry relative="1" as="geometry">
            <mxPoint x="535" y="750" as="sourcePoint" />
            <mxPoint x="535" y="800" as="targetPoint" />
          </mxGeometry>
        </mxCell>
        <mxCell id="l3nvB3DhA1se58afsrXY-290" value="&lt;font style=&quot;font-size: 14px;&quot;&gt;Модуль&lt;/font&gt;" style="rounded=0;whiteSpace=wrap;html=1;" vertex="1" parent="1">
          <mxGeometry x="890" y="-470" width="120" height="60" as="geometry" />
        </mxCell>
        <mxCell id="l3nvB3DhA1se58afsrXY-296" value="&lt;font style=&quot;font-size: 14px;&quot;&gt;Модуль-заглушка&lt;br&gt;&lt;/font&gt;" style="rounded=0;whiteSpace=wrap;html=1;fillColor=#d5e8d4;strokeColor=#82b366;" vertex="1" parent="1">
          <mxGeometry x="1130" y="-470" width="120" height="60" as="geometry" />
        </mxCell>
        <mxCell id="l3nvB3DhA1se58afsrXY-297" style="edgeStyle=orthogonalEdgeStyle;rounded=0;orthogonalLoop=1;jettySize=auto;html=1;exitX=0.5;exitY=1;exitDx=0;exitDy=0;strokeWidth=2;" edge="1" parent="1">
          <mxGeometry relative="1" as="geometry">
            <mxPoint x="905" y="-360" as="sourcePoint" />
            <mxPoint x="995" y="-360" as="targetPoint" />
          </mxGeometry>
        </mxCell>
        <mxCell id="l3nvB3DhA1se58afsrXY-298" value="&lt;div&gt;&lt;font style=&quot;font-size: 14px;&quot;&gt;Последовательность&lt;/font&gt;&lt;/div&gt;&lt;div&gt;&lt;font style=&quot;font-size: 14px;&quot;&gt;тестирования&lt;br&gt;&lt;/font&gt;&lt;/div&gt;" style="text;html=1;strokeColor=none;fillColor=none;align=center;verticalAlign=middle;whiteSpace=wrap;rounded=0;" vertex="1" parent="1">
          <mxGeometry x="877.5" y="-340" width="145" height="40" as="geometry" />
        </mxCell>
        <mxCell id="l3nvB3DhA1se58afsrXY-300" style="edgeStyle=orthogonalEdgeStyle;rounded=0;orthogonalLoop=1;jettySize=auto;html=1;exitX=0.5;exitY=1;exitDx=0;exitDy=0;strokeWidth=2;strokeColor=#4912FF;" edge="1" parent="1">
          <mxGeometry relative="1" as="geometry">
            <mxPoint x="1145" y="-360" as="sourcePoint" />
            <mxPoint x="1235" y="-360" as="targetPoint" />
          </mxGeometry>
        </mxCell>
        <mxCell id="l3nvB3DhA1se58afsrXY-301" value="&lt;font style=&quot;font-size: 14px;&quot;&gt;Связь между модулями, проверяемая в данной группе&lt;/font&gt;" style="text;html=1;strokeColor=none;fillColor=none;align=center;verticalAlign=middle;whiteSpace=wrap;rounded=0;" vertex="1" parent="1">
          <mxGeometry x="1085" y="-350" width="210" height="60" as="geometry" />
        </mxCell>
        <mxCell id="l3nvB3DhA1se58afsrXY-302" style="edgeStyle=orthogonalEdgeStyle;rounded=0;orthogonalLoop=1;jettySize=auto;html=1;exitX=0.5;exitY=1;exitDx=0;exitDy=0;strokeWidth=1;dashed=1;" edge="1" parent="1">
          <mxGeometry relative="1" as="geometry">
            <mxPoint x="910" y="-270" as="sourcePoint" />
            <mxPoint x="1000" y="-270" as="targetPoint" />
          </mxGeometry>
        </mxCell>
        <mxCell id="l3nvB3DhA1se58afsrXY-303" value="&lt;font style=&quot;font-size: 14px;&quot;&gt;Взаимодействие с модулем-загрушкой&lt;/font&gt;" style="text;html=1;strokeColor=none;fillColor=none;align=center;verticalAlign=middle;whiteSpace=wrap;rounded=0;" vertex="1" parent="1">
          <mxGeometry x="870" y="-250" width="170" height="30" as="geometry" />
        </mxCell>
        <mxCell id="l3nvB3DhA1se58afsrXY-304" style="edgeStyle=orthogonalEdgeStyle;rounded=0;orthogonalLoop=1;jettySize=auto;html=1;exitX=0.5;exitY=1;exitDx=0;exitDy=0;strokeWidth=2;strokeColor=#31FF08;" edge="1" parent="1">
          <mxGeometry relative="1" as="geometry">
            <mxPoint x="1145" y="-270" as="sourcePoint" />
            <mxPoint x="1235" y="-270" as="targetPoint" />
          </mxGeometry>
        </mxCell>
        <mxCell id="l3nvB3DhA1se58afsrXY-305" value="&lt;font style=&quot;font-size: 14px;&quot;&gt;Проверенная ранее связь; проверять повторно не имеет смысла&lt;/font&gt;" style="text;html=1;strokeColor=none;fillColor=none;align=center;verticalAlign=middle;whiteSpace=wrap;rounded=0;" vertex="1" parent="1">
          <mxGeometry x="1052.5" y="-260" width="275" height="50" as="geometry" />
        </mxCell>
      </root>
    </mxGraphModel>
  </diagram>
</mxfile>
